<svg width="36" height="36" viewBox="0 0 36 36" fill="none" xmlns="http://www.w3.org/2000/svg">
<g id="account_circle_FILL0_wght400_GRAD0_opsz48 3">
<path id="Vector" d="M8.325 26.4375C9.9 25.3375 11.4625 24.4938 13.0125 23.9062C14.5625 23.3188 16.225 23.025 18 23.025C19.775 23.025 21.4438 23.3188 23.0063 23.9062C24.5688 24.4938 26.1375 25.3375 27.7125 26.4375C28.8125 25.0875 29.5938 23.725 30.0563 22.35C30.5188 20.975 30.75 19.525 30.75 18C30.75 14.375 29.5313 11.3438 27.0938 8.90625C24.6562 6.46875 21.625 5.25 18 5.25C14.375 5.25 11.3438 6.46875 8.90625 8.90625C6.46875 11.3438 5.25 14.375 5.25 18C5.25 19.525 5.4875 20.975 5.9625 22.35C6.4375 23.725 7.225 25.0875 8.325 26.4375ZM17.993 19.125C16.5477 19.125 15.3313 18.6289 14.3438 17.6368C13.3563 16.6446 12.8625 15.4259 12.8625 13.9805C12.8625 12.5352 13.3586 11.3188 14.3507 10.3313C15.3429 9.34375 16.5616 8.85 18.007 8.85C19.4523 8.85 20.6688 9.34607 21.6562 10.3382C22.6438 11.3304 23.1375 12.5491 23.1375 13.9945C23.1375 15.4398 22.6414 16.6563 21.6493 17.6438C20.6571 18.6313 19.4384 19.125 17.993 19.125ZM18.0176 33C15.9558 33 14.0125 32.6063 12.1875 31.8188C10.3625 31.0313 8.76875 29.9563 7.40625 28.5938C6.04375 27.2313 4.96875 25.6404 4.18125 23.8213C3.39375 22.0021 3 20.0584 3 17.99C3 15.9217 3.39375 13.9813 4.18125 12.1688C4.96875 10.3563 6.04375 8.76875 7.40625 7.40625C8.76875 6.04375 10.3596 4.96875 12.1787 4.18125C13.9979 3.39375 15.9416 3 18.01 3C20.0783 3 22.0188 3.39375 23.8313 4.18125C25.6438 4.96875 27.2313 6.04375 28.5938 7.40625C29.9563 8.76875 31.0313 10.3566 31.8188 12.1699C32.6063 13.9832 33 15.9208 33 17.9825C33 20.0442 32.6063 21.9875 31.8188 23.8125C31.0313 25.6375 29.9563 27.2313 28.5938 28.5938C27.2313 29.9563 25.6434 31.0313 23.8301 31.8188C22.0168 32.6063 20.0793 33 18.0176 33ZM18 30.75C19.375 30.75 20.7188 30.55 22.0312 30.15C23.3438 29.75 24.6375 29.05 25.9125 28.05C24.6375 27.15 23.3375 26.4625 22.0125 25.9875C20.6875 25.5125 19.35 25.275 18 25.275C16.65 25.275 15.3125 25.5125 13.9875 25.9875C12.6625 26.4625 11.3625 27.15 10.0875 28.05C11.3625 29.05 12.6562 29.75 13.9688 30.15C15.2813 30.55 16.625 30.75 18 30.75ZM18 16.875C18.85 16.875 19.5438 16.6063 20.0813 16.0688C20.6188 15.5313 20.8875 14.8375 20.8875 13.9875C20.8875 13.1375 20.6188 12.4438 20.0813 11.9062C19.5438 11.3688 18.85 11.1 18 11.1C17.15 11.1 16.4563 11.3688 15.9188 11.9062C15.3813 12.4438 15.1125 13.1375 15.1125 13.9875C15.1125 14.8375 15.3813 15.5313 15.9188 16.0688C16.4563 16.6063 17.15 16.875 18 16.875Z" fill="#FF3200"/>
</g>
</svg>
