<?xml version="1.0" encoding="UTF-8"?><svg id="a" xmlns="http://www.w3.org/2000/svg" viewBox="0 0 224 76"><path d="M211.24,39.41c-.89-1.5-2.28-2.67-4.17-3.52-1.89-.85-4.4-1.27-7.52-1.27h-2.62l.56-6.08h13.19v-5.9h-14.2c-.07.37-.14.74-.25,1.12-.29,1.03-.8,2.1-1.55,3.22-.75,1.12-1.86,2.37-3.33,3.77l-.73.68-.55,6.21h7.63v2.87h.14c1.92,0,3.42.17,4.48.52,1.07.35,1.82.82,2.25,1.43.44.61.65,1.33.65,2.18,0,1.3-.53,2.32-1.6,3.06-1.07.74-2.52,1.11-4.35,1.11-1.65,0-3.27-.26-4.84-.79-1.58-.53-2.95-1.23-4.12-2.11l-2.88,5.58c1.53,1.12,3.37,1.97,5.52,2.56,2.15.59,4.32.88,6.51.88,3,0,5.47-.48,7.41-1.45,1.94-.97,3.37-2.25,4.3-3.86.93-1.6,1.4-3.33,1.4-5.17s-.44-3.56-1.33-5.06Z" fill="#202a3b"/><path d="M190.07,37.65h-6.03l6.58-6.21.78-8.79h5.09c.12-.65.18-1.29.18-1.92,0-1.94-.49-3.61-1.46-5.01-.98-1.41-2.35-2.49-4.12-3.24-1.77-.76-3.83-1.13-6.17-1.13-2.82,0-5.32.53-7.48,1.59-2.16,1.06-3.83,2.5-5,4.31l5.27,3.45c.78-1.06,1.73-1.86,2.84-2.4,1.11-.54,2.34-.82,3.69-.82,1.68,0,2.94.35,3.78,1.04.84.7,1.26,1.66,1.26,2.9,0,.51-.08,1.07-.23,1.66-.15.59-.46,1.23-.92,1.91-.47.68-1.18,1.46-2.14,2.34l-12.16,11.57v4.76h23.88v-3.12h-7.88l.25-2.87Z" fill="#ff3200"/><polygon points="197.7 37.64 190.07 37.64 189.82 40.52 197.7 40.52 197.7 37.64" fill="#b12825"/><path d="M190.62,31.43l.73-.68c1.47-1.39,2.58-2.65,3.33-3.77.75-1.12,1.27-2.19,1.55-3.22.1-.38.18-.75.25-1.12h-5.09l-.78,8.79Z" fill="#b12825"/><path d="M202.44,15.49c0,.36-.29.65-.65.65s-.65-.29-.65-.65.29-.65.65-.65.65.29.65.65Z" fill="#202a3b"/><path d="M202.27,14.58c0,.72-.58,1.3-1.29,1.3s-1.29-.58-1.29-1.3.58-1.3,1.29-1.3,1.29.58,1.29,1.3Z" fill="#ff3200"/><path d="M216.7,19.15c-.88,0-1.59-.71-1.6-1.59,0-.89.7-1.61,1.58-1.61.88,0,1.59.71,1.6,1.59,0,.89-.7,1.61-1.58,1.61Z" fill="#202a3b"/><path d="M221.85,13.22c-.57,0-1.04-.46-1.04-1.04,0-.58.46-1.05,1.03-1.05.57,0,1.04.46,1.04,1.04,0,.58-.46,1.05-1.03,1.05Z" fill="#ff3200"/><path d="M215.66,20.18c-.57,0-1.04-.46-1.04-1.04,0-.58.46-1.05,1.03-1.05.57,0,1.04.46,1.04,1.04,0,.58-.46,1.04-1.03,1.05Z" fill="#ff3200"/><path d="M223.07,25.77c.18.39.51.7.93.82-.42.13-.75.43-.93.82-.18-.39-.51-.7-.93-.82.41-.13.75-.43.93-.82Z" fill="#ff3200"/><path d="M208.92,12.7c.31.7.92,1.25,1.66,1.47-.74.23-1.35.77-1.66,1.47-.31-.7-.92-1.25-1.66-1.47.74-.23,1.35-.77,1.66-1.47Z" fill="#202a3b"/><path d="M175.79,64.77v-2.31l.3.79-2.48-4.14h1.39l1.89,3.17h-.8l1.9-3.17h1.27l-2.46,4.14.3-.79v2.31h-1.31Z" fill="#202a3b"/><path d="M183.2,63.72h3.06v1.05h-4.35v-5.66h4.25v1.05h-2.95v3.56ZM183.1,61.38h2.71v1.03h-2.71v-1.03Z" fill="#202a3b"/><path d="M188.64,64.77l2.5-5.66h1.28l2.52,5.66h-1.37l-2.06-5h.52l-2.06,5h-1.33ZM189.9,63.56l.33-.99h2.91l.34.99h-3.57Z" fill="#202a3b"/><path d="M197.62,64.77v-5.66h2.43c.5,0,.94.08,1.3.25.36.16.64.4.84.71.2.31.3.67.3,1.09s-.1.79-.3,1.1-.48.54-.84.69c-.36.16-.8.24-1.3.24h-1.72l.59-.57v2.15h-1.31ZM198.93,62.77l-.59-.62h1.65c.4,0,.69-.09.9-.26s.31-.42.31-.73-.1-.55-.31-.72-.5-.25-.9-.25h-1.65l.59-.62v3.21ZM201.2,64.77l-1.41-2.05h1.4l1.41,2.05h-1.4Z" fill="#202a3b"/><path d="M207.46,64.87c-.45,0-.88-.06-1.3-.18-.41-.12-.75-.28-1-.47l.44-.99c.24.17.52.31.85.42.33.11.67.17,1,.17.26,0,.46-.03.62-.08.16-.05.27-.13.35-.21.07-.09.11-.19.11-.31,0-.15-.06-.27-.18-.36-.12-.09-.27-.16-.47-.22-.2-.06-.41-.11-.64-.16-.23-.05-.46-.11-.69-.18-.23-.07-.45-.17-.64-.29-.2-.12-.35-.28-.47-.48s-.17-.44-.17-.74c0-.32.09-.62.26-.89.17-.27.43-.48.78-.64.35-.16.79-.24,1.32-.24.35,0,.7.04,1.05.13.35.09.65.21.9.37l-.41.99c-.25-.15-.51-.25-.78-.33s-.53-.11-.77-.11-.46.03-.62.08-.27.13-.34.23-.11.21-.11.32c0,.15.06.27.18.36.12.09.27.16.47.21s.41.1.64.15c.24.05.47.11.7.19.23.08.44.17.63.29.19.12.35.27.47.47.12.2.18.44.18.73,0,.32-.09.61-.26.87s-.44.48-.79.64c-.35.16-.8.24-1.33.24Z" fill="#202a3b"/><path d="M47.85,26.45c0,.42-.07.84-.22,1.25-.15.41-.37.78-.67,1.1-.3.33-.68.6-1.14.81-.45.21-.99.31-1.6.31h-4.82v-6.96h4.7c1.09,0,2,.29,2.7.87.69.57,1.04,1.44,1.04,2.61M50.33,23.65c-.4-.8-.93-1.46-1.57-1.97-.64-.51-1.38-.89-2.21-1.13-.82-.24-1.66-.36-2.51-.36h-7.61v20.62h2.97v-8.13h5.05c1.01,0,1.94-.19,2.74-.56.8-.37,1.49-.85,2.04-1.42.55-.58.97-1.25,1.26-1.98.29-.74.44-1.47.44-2.19,0-1.11-.2-2.08-.6-2.88" fill="#202a3b"/><path d="M53.87,32.02c.1-1.1.42-1.96.95-2.56.57-.64,1.29-.95,2.23-.95s1.67.31,2.23.92c.53.58.84,1.45.92,2.59h-6.32ZM62.65,29.61c-.31-.81-.74-1.5-1.28-2.06-.54-.56-1.18-.99-1.9-1.28-.72-.29-1.48-.44-2.27-.44-.73,0-1.47.13-2.2.37-.74.25-1.42.68-2.03,1.27-.6.59-1.09,1.39-1.47,2.37-.38.98-.57,2.2-.57,3.63,0,1.51.19,2.76.55,3.73.37.97.86,1.75,1.46,2.31.6.56,1.29.95,2.05,1.17.74.21,1.5.31,2.25.31.91,0,1.81-.15,2.68-.44.88-.29,1.67-.78,2.37-1.45l.12-.12.02-.02-.02-.02-1.77-1.96-.02-.03-.03.02-.13.12c-.46.43-.99.75-1.57.98-.58.22-1.1.33-1.54.33-.59,0-1.1-.1-1.54-.3-.44-.2-.8-.48-1.09-.83-.29-.36-.51-.78-.66-1.26-.15-.48-.22-1.01-.22-1.55v-.03h9.26v-2.07c0-1.03-.16-1.96-.46-2.76" fill="#202a3b"/><path d="M74,33.02c0,.76-.02,1.37-.05,1.82-.03.44-.09.83-.18,1.16-.25.84-.67,1.45-1.24,1.83-.57.38-1.23.57-1.96.57-.67,0-1.26-.16-1.74-.49-.49-.33-.86-.78-1.12-1.36-.18-.4-.3-.85-.35-1.34-.05-.49-.07-1.05-.07-1.7.02-.61.06-1.19.12-1.73.05-.5.18-.97.39-1.4.27-.6.67-1.07,1.19-1.4.52-.33,1.12-.5,1.79-.5.63,0,1.21.16,1.72.48.5.31.88.81,1.14,1.48.15.33.24.7.29,1.11.05.43.07.92.07,1.47M76.54,30.36c-.17-.77-.43-1.43-.77-1.97-.52-.8-1.21-1.43-2.05-1.86-.84-.43-1.8-.65-2.87-.65-1.29,0-2.43.29-3.39.87-.97.58-1.71,1.42-2.21,2.5-.28.58-.47,1.23-.58,1.93-.11.7-.16,1.47-.16,2.28,0,1.17.08,2.19.25,3.03.17.85.46,1.6.86,2.22.52.77,1.22,1.34,2.06,1.71.83.37,1.8.56,2.86.56,1.17,0,2.22-.24,3.15-.7.93-.47,1.66-1.16,2.19-2.04.34-.58.58-1.32.72-2.18.14-.85.21-1.91.21-3.15,0-.94-.08-1.8-.25-2.56" fill="#202a3b"/><path d="M87.44,33.46c0,.57-.04,1.15-.11,1.73-.08.57-.23,1.09-.45,1.54-.22.44-.54.8-.95,1.08-.41.28-.98.42-1.68.42s-1.23-.14-1.62-.43c-.39-.29-.7-.66-.91-1.11-.21-.46-.35-.99-.42-1.55-.07-.58-.1-1.14-.1-1.68s.04-1.08.12-1.65c.07-.57.23-1.09.46-1.57.23-.46.55-.86.97-1.16.41-.3.96-.45,1.65-.45s1.27.14,1.67.43c.4.29.71.67.9,1.12.2.47.34,1,.39,1.57.06.58.08,1.16.08,1.71M90.13,30.64c-.15-.88-.43-1.69-.82-2.39-.4-.71-.96-1.29-1.65-1.73-.7-.44-1.59-.66-2.65-.66-.74,0-1.46.14-2.15.42-.59.24-1.14.62-1.65,1.13v-1.4h-2.79v20.56h2.79v-6.76c.38.36.82.64,1.3.83.61.24,1.3.36,2.03.36,1.15,0,2.12-.23,2.88-.68.75-.45,1.35-1.04,1.8-1.77.44-.72.74-1.55.9-2.47.16-.91.24-1.84.24-2.78s-.07-1.79-.22-2.66" fill="#202a3b"/><path d="M96.99,38.23h-.87c-.87,0-1.27-.37-1.27-1.16v-17.74h-2.79v17.95c0,1.3.36,2.23,1.07,2.76.69.52,1.59.78,2.68.78h1.22v-2.59h-.03Z" fill="#202a3b"/><path d="M100.46,32.02c.1-1.1.42-1.96.95-2.56.56-.63,1.3-.95,2.23-.95s1.67.31,2.23.92c.53.58.84,1.45.92,2.59h-6.32ZM109.25,29.61c-.31-.81-.74-1.5-1.28-2.06-.54-.56-1.18-.99-1.9-1.28-.72-.29-1.48-.44-2.27-.44-.73,0-1.47.13-2.2.37-.74.25-1.42.68-2.03,1.27-.6.59-1.09,1.39-1.47,2.37-.38.98-.57,2.2-.57,3.63,0,1.51.19,2.77.55,3.73.37.97.86,1.75,1.46,2.31.6.56,1.29.95,2.04,1.17.74.21,1.5.31,2.25.31.91,0,1.81-.15,2.68-.44.88-.29,1.68-.78,2.37-1.45l.12-.12.02-.02-.02-.02-1.77-1.96-.02-.03-.03.02-.13.12c-.47.43-1,.76-1.57.98-.58.22-1.1.33-1.54.33-.59,0-1.11-.1-1.54-.3-.44-.2-.8-.48-1.09-.83-.29-.36-.51-.78-.66-1.26-.15-.48-.22-1-.22-1.55v-.03h9.26v-2.07c0-1.03-.16-1.96-.46-2.76" fill="#202a3b"/><path d="M125.94,36.37l-2.69-1.31-.03-.02v.04s-.08.18-.08.18c-.31.87-.82,1.57-1.51,2.1-.69.52-1.54.79-2.53.79-.76,0-1.42-.14-1.97-.43-.55-.29-1.02-.66-1.39-1.12-.37-.46-.65-1-.83-1.6-.19-.61-.28-1.25-.28-1.9v-5.26c0-.61.09-1.23.28-1.83.18-.59.47-1.12.83-1.57.37-.45.83-.82,1.38-1.09.55-.27,1.21-.41,1.97-.41,1,0,1.84.25,2.52.74.68.5,1.18,1.17,1.5,2l.06.17v.03s.05-.02.05-.02l2.7-1.22h.03s-.01-.04-.01-.04l-.06-.15c-.54-1.33-1.39-2.4-2.54-3.2-1.15-.79-2.59-1.2-4.27-1.2-1.22,0-2.31.21-3.24.63-.92.42-1.71.99-2.33,1.69-.62.71-1.09,1.53-1.39,2.45-.3.92-.45,1.89-.45,2.89v5.58c0,1.02.15,2.01.45,2.94.3.93.77,1.76,1.39,2.45.62.69,1.4,1.26,2.33,1.68.92.42,2.01.63,3.24.63,1.68,0,3.12-.39,4.29-1.17,1.17-.78,2.03-1.87,2.55-3.27l.05-.15v-.03s-.02-.01-.02-.01Z" fill="#ff3200"/><path d="M129.21,32.02c.1-1.1.42-1.96.95-2.56.56-.64,1.29-.95,2.23-.95s1.66.3,2.23.92c.53.58.84,1.45.92,2.59h-6.32ZM138,29.61c-.31-.8-.74-1.5-1.28-2.06-.54-.56-1.18-.99-1.9-1.28-.72-.29-1.48-.44-2.27-.44-.73,0-1.47.13-2.2.37-.74.25-1.42.68-2.02,1.27-.6.59-1.1,1.39-1.47,2.37-.38.98-.57,2.2-.57,3.63,0,1.51.18,2.77.55,3.73.37.97.86,1.75,1.46,2.31.6.56,1.29.95,2.05,1.17.74.21,1.5.31,2.25.31.91,0,1.81-.15,2.68-.44.88-.29,1.67-.78,2.37-1.45l.12-.12.02-.02-.02-.02-1.77-1.96-.02-.03-.03.02-.13.12c-.46.43-.99.75-1.57.98-.58.22-1.1.33-1.54.33-.59,0-1.11-.1-1.54-.3-.44-.2-.8-.48-1.09-.83-.29-.36-.52-.79-.66-1.26-.15-.48-.22-1-.22-1.55v-.03h9.26v-2.07c0-1.03-.16-1.96-.46-2.76" fill="#ff3200"/><path d="M149.05,26.59l-.11-.08c-.29-.21-.66-.37-1.12-.48-.44-.11-.93-.17-1.44-.17-.8,0-1.54.15-2.18.46-.54.25-1.05.68-1.5,1.25v-1.56h-2.79v14.81h2.79v-8.92c0-1.1.29-1.93.86-2.46.58-.54,1.32-.82,2.21-.82.76,0,1.39.17,1.92.52l.17.11.03.02.02-.04,1.16-2.61v-.03s-.01-.02-.01-.02Z" fill="#ff3200"/><path d="M156.62,38.23h-1.42c-.52,0-.84-.15-.97-.44-.16-.35-.24-.73-.24-1.14v-8.16h2.21v-2.47h-2.21v-3.57h-2.79v3.57h-1.71v2.47h1.71v8.77c0,1.16.34,2.06,1,2.66.65.6,1.51.91,2.55.91h1.92v-2.59h-.03Z" fill="#ff3200"/><path d="M16.16,38.74c-4.32-1.74-5.83-5.23-4.61-9.07.66-2.06,2.05-3.69,3.83-4.55,2.82-1.36,6.08.42,6.48,3.52.32,2.43-.44,5.08-1.5,6.76-.69,1.13-1.53,2.16-2.49,3.03-.46.42-1.13.54-1.71.31M5.02,31.07c-.22-4.93,3.07-9.22,7.64-10.47,1.23-.33,2.53-.19,3.66.41h.02c-.07.01-.15.01-.22.02-4.15.28-7.51,3.16-8.63,6.93,0-.02.02-.05.03-.07-.05.13-.09.26-.14.39-1.51,4.72,1.49,9.62,6.41,11.49.53.2,1.07.35,1.6.44h-.02c-.95.51-2.06.64-3.08.32-4.05-1.27-7.08-4.98-7.27-9.45M27.92,34.23c.13-.93.25-1.92.31-2.94,0-7.83-6.34-14.17-14.17-14.17-2.84,0-5.66.86-8.01,2.46-.65.44-1.26.94-1.82,1.48-.57.54-1.09,1.14-1.56,1.77-.47.63-.88,1.3-1.24,2-.42.82-.75,1.68-.99,2.57-.24.89-.38,1.81-.43,2.73-.08,1.64.18,3.29.73,4.83.57,1.6,1.46,3.11,2.6,4.37.17.18.33.37.51.54,2.12,2.12,4.92,3.52,7.9,3.92.8.11,1.61.14,2.42.11,3.87-.17,7.3-1.96,9.7-4.7,1.05,2.49,3.24,4.61,7.77,4.15-.61-.2-5.14-.16-3.73-9.13" fill="#ff3200"/><path d="M84.18,53.96c0-2.31-1.09-3.06-2.7-3.06h-2.13v7.96h2.13c2.02,0,2.7-1.23,2.7-2.99v-1.91ZM81.56,50.03c1.45,0,2.6.53,3.2,1.78.33.7.36,1.68.36,2.9,0,1.36-.03,2.37-.33,3.12-.63,1.43-1.89,1.89-3.45,1.89h-2.94v-9.69h3.16Z" fill="#202a3b"/><path d="M90.45,53.84c-.29-.17-.63-.24-.95-.24-1.04,0-1.81.71-1.81,1.92v4.2h-.88v-6.91h.88v1.03h.06c.49-.86,1.23-1.11,2.01-1.1.42.01.79.08,1.06.24l-.36.85Z" fill="#202a3b"/><path d="M93.76,53.56c-1.13,0-1.88.79-1.95,2.23h3.84c-.03-1.49-.72-2.23-1.89-2.23M91.81,56.51c-.04,1.36.6,2.52,2.13,2.52.5,0,1.16-.22,1.61-.6l.54.6c-.61.54-1.35.78-2.13.78-1.41,0-3.04-.63-3.04-3.51s1.56-3.55,2.85-3.55c1.66,0,2.74,1.24,2.74,3.08v.68h-4.72Z" fill="#202a3b"/><path d="M100.05,56.55c-1,0-1.59.42-1.59,1.21s.63,1.27,1.71,1.27c.89,0,2.02-.26,2.02-1.38v-1.1h-2.14ZM102.18,59.04c-.35.54-1.17.77-2.12.77-1.45,0-2.44-.75-2.44-2.01,0-1.09.74-1.98,2.21-1.98h2.35v-.89c0-.88-.5-1.36-1.8-1.36-.77,0-1.35.19-1.78.64l-.56-.6c.54-.57,1.36-.86,2.33-.86,1.45,0,2.69.45,2.69,2.19v4.79h-.88v-.67h-.01Z" fill="#202a3b"/><path d="M113.63,55.45c0-1.1-.53-1.85-1.73-1.85-1.04,0-1.88.77-1.88,1.95v4.18h-.88v-4.27c0-1.11-.58-1.85-1.77-1.85-1.06,0-1.82.77-1.82,1.95v4.18h-.88v-6.91h.88v1h.03c.45-.74,1.28-1.06,2.05-1.06,1.03,0,1.71.45,2.14,1.18h0s.01,0,.01,0c.56-.82,1.38-1.18,2.37-1.18,1.35,0,2.35.86,2.35,2.35v4.61h-.88v-4.27Z" fill="#202a3b"/><path d="M119.56,52.82h.89v6.91h-.89v-6.91ZM119.53,50.03h.93v.91h-.93v-.91Z" fill="#202a3b"/><path d="M124.29,59.72c-.99,0-1.52-.58-1.52-1.62v-4.54h-.88v-.75h.88v-1.77h.89v1.77h1.17v.75h-1.17v4.37c0,.53.13.99.85.99h.52v.79h-.74Z" fill="#202a3b"/><polygon points="126.1 61.2 126.51 59.72 126.2 59.72 126.2 58.5 127.34 58.5 127.34 59.7 126.66 61.2 126.1 61.2" fill="#202a3b"/><path d="M134.73,53.61c-1.59,0-1.84,1.45-1.84,2.66s.2,2.69,1.84,2.69c1.55,0,1.8-1.57,1.8-2.67,0-1.29-.33-2.67-1.8-2.67M136.53,59.72v-.95h-.03c-.63.82-1.29,1.03-1.99,1.03-1.96,0-2.53-1.7-2.53-3.49s.58-3.56,2.7-3.56c.84,0,1.46.36,1.82.92h.03v-4.04h.88v10.09h-.88Z" fill="#202a3b"/><path d="M140.08,54.42c-.28.45-.42,1-.42,1.88s.14,1.46.4,1.89c.32.52.84.82,1.52.82.72,0,1.32-.31,1.64-1,.18-.38.32-.88.32-1.71,0-.88-.11-1.39-.29-1.77-.32-.64-.89-.99-1.6-.99s-1.25.35-1.57.88M143.94,53.89c.32.49.52,1.29.5,2.44-.01,1.09-.25,1.84-.6,2.35-.52.77-1.35,1.13-2.3,1.13s-1.67-.32-2.13-.92c-.45-.58-.63-1.42-.63-2.6,0-1.03.19-1.73.54-2.28.49-.77,1.3-1.24,2.37-1.24.99,0,1.78.4,2.24,1.13" fill="#202a3b"/><path d="M149.24,52.82h.89v6.91h-.89v-6.91ZM149.21,50.03h.93v.91h-.93v-.91Z" fill="#202a3b"/><path d="M153.98,59.72c-.99,0-1.52-.58-1.52-1.62v-4.54h-.88v-.75h.88v-1.77h.89v1.77h1.17v.75h-1.17v4.37c0,.53.13.99.85.99h.52v.79h-.74Z" fill="#202a3b"/><rect x="155.91" y="58.5" width="1.13" height="1.23" fill="#202a3b"/></svg>